<svg width="132" height="42" viewBox="0 0 132 42" fill="none" xmlns="http://www.w3.org/2000/svg">
<path d="M29.8751 31.5538L22.7658 34.6097L17.7127 32.5948V26.9653L18.4844 28.7597L22.7107 30.4451L26.8912 28.6482L26.9034 28.6168L32.2896 25.4981L29.8751 31.5538ZM12.6146 24.8492L17.7699 21.864L16.6872 24.5795L16.7276 24.6737V32.202L15.5786 31.7439L12.6146 24.8492ZM15.302 17.6639L21.0581 19.1984L18.3725 20.353L18.3602 20.3839L12.974 23.5028L15.302 17.6639ZM22.4965 8.88675L29.5138 17.0002L27.9336 22.927L26.779 20.2412L26.7698 20.2375L21.8031 9.71584L22.4965 8.88675ZM28.5762 24.4213L28.563 24.3906L30.1664 18.3768L32.6489 24.1517L27.4935 27.1369L28.5762 24.4213ZM22.5672 19.6221L26.0353 21.0049L27.5101 24.4356L26.1272 27.9041L22.6964 29.3789L19.228 27.996L17.7533 24.5654L19.1362 21.0968L22.5672 19.6221ZM22.5529 18.5558L22.5222 18.5692L15.8801 16.7984L21.107 10.5482L25.4281 19.7024L22.5529 18.5558ZM30.4795 16.6105L22.484 7.36621L14.5783 16.8197L11.4561 24.649L14.8347 32.5079L22.7801 35.6758L30.6391 32.2977L33.8072 24.3519L30.4795 16.6105Z" fill="#ED1B2C"/>
<path d="M58.61 19.0329H61.9232V27.2322H62.6143V19.0329H65.9268V18.3418H58.61V19.0329Z" fill="white"/>
<path d="M45.6311 23.6887H42.0358V19.3413L43.4534 19.2122V19.2189L43.6171 19.2032C43.7139 19.1941 43.8456 19.18 43.9975 19.1637L44.0142 19.1618C44.5334 19.1069 45.3181 19.0237 45.6311 19.0237C46.8669 19.0237 47.8724 19.9478 47.8724 21.0837C47.8724 22.6419 47.0318 23.6158 45.6311 23.6887ZM45.6311 18.332C45.2848 18.332 44.5222 18.4126 43.9549 18.473V18.4725L41.3444 18.7099V27.2322H42.0358V24.38L45.6483 24.3795C46.6219 24.3291 47.4056 23.9383 47.9149 23.25C48.3331 22.6842 48.5638 21.9147 48.5638 21.0837C48.5638 19.5669 47.2477 18.332 45.6311 18.332Z" fill="white"/>
<path d="M52.3772 23.1445C52.3772 23.1445 54.0293 19.3155 54.0422 19.2861C54.0741 19.211 54.0741 19.1427 54.0741 19.1427C54.0741 19.1427 54.0741 19.211 54.1057 19.2808C54.1149 19.3016 57.0411 25.734 57.084 25.828C57.1265 25.9219 57.1846 26.004 57.2244 26.0661C57.2244 26.0661 57.0674 25.9245 57.0071 25.8889C56.8652 25.8043 52.3772 23.1445 52.3772 23.1445ZM53.8746 17.9253L49.8669 27.2319H50.6158L52.102 23.7849L57.9171 27.2321L58.4819 27.2307L54.2475 17.9253H53.8746Z" fill="white"/>
<path d="M68.9789 21.9248V19.3491L70.3965 19.2204V19.2267L70.5602 19.211C70.6566 19.2019 70.7887 19.1881 70.9406 19.1715L70.9572 19.1696C71.4765 19.1149 72.2609 19.0315 72.5742 19.0315C73.8099 19.0315 74.8151 19.9558 74.8151 21.0915C74.8151 22.6498 73.9745 23.6236 72.5742 23.6965H71.2816L68.9789 21.9248ZM72.1213 24.3381C72.2281 24.3723 72.2708 24.3861 72.3355 24.3889C72.4395 24.3936 72.5914 24.3873 72.5914 24.3873C73.565 24.3369 74.3487 23.9463 74.858 23.2578C75.276 22.692 75.5069 21.9225 75.5069 21.0915C75.5069 19.5747 74.1908 18.3398 72.5742 18.3398C72.2276 18.3398 71.4651 18.4204 70.898 18.481V18.4804L68.2871 18.7178V27.24H68.9789V22.798L70.1593 23.6965L71.0672 24.3876L74.8151 27.24H75.8867C75.8867 27.24 72.3437 24.5242 72.2612 24.4504C72.1787 24.3765 72.1213 24.3381 72.1213 24.3381Z" fill="white"/>
<path d="M95.3922 26.0753L89.2437 18.3418H88.5856V27.2388H89.2769V19.4948L95.4283 27.2317H96.0831V18.3418H95.3922V26.0753Z" fill="white"/>
<path d="M100.335 18.3418H99.6442V27.2233H100.335V18.3418Z" fill="white"/>
<path d="M102.619 19.0331H105.854L105.854 27.2233H106.545V19.0331H109.936V18.3418H102.619V19.0331Z" fill="white"/>
<path d="M112.632 26.527V23.387H117.634V22.8058C117.634 22.8058 113.44 19.2196 113.367 19.1556C113.218 19.0199 113.157 19.0141 113.157 19.0141C113.157 19.0141 113.302 19.0302 113.455 19.0302H118.73V18.3384L111.939 18.3419V18.8275C111.939 18.8275 116.255 22.5257 116.321 22.5913C116.386 22.6567 116.518 22.7257 116.518 22.7257C116.518 22.7257 116.424 22.6956 116.286 22.6956H111.939V27.2331L119.391 27.2317V26.527H112.632Z" fill="white"/>
<path d="M85.155 23.3778C85.155 24.6339 84.5234 25.4076 84.2955 25.6607L84.1558 25.8162C83.5416 26.4134 82.7419 26.7443 81.8927 26.7508L81.8413 26.7489L81.7898 26.7508C80.9407 26.7443 80.1409 26.4134 79.5265 25.8162L79.387 25.6607C79.1592 25.4076 78.5275 24.6339 78.5275 23.3778V22.2022C78.5275 20.3285 80.0031 18.7818 81.8214 18.753L81.8413 18.7523L81.8611 18.753C83.6794 18.7818 85.155 20.3285 85.155 22.2022V23.3778ZM82.1181 18.0736L82.1163 18.0687L82.0038 18.0622L81.8603 18.0591L81.8413 18.0603L81.8222 18.0591L81.6787 18.0622L81.5662 18.0687L81.5644 18.0736C79.4649 18.2349 77.8364 20.0276 77.8364 22.2022V23.3778C77.8364 24.3213 78.1563 25.232 78.7391 25.9527L78.8808 26.108C79.6399 26.9399 80.7033 27.4421 81.8133 27.4421C81.8228 27.4421 81.8318 27.4415 81.8413 27.441C81.8507 27.4415 81.8598 27.4421 81.8692 27.4421C82.9793 27.4421 84.0423 26.9399 84.8016 26.108L84.9434 25.9527C85.5262 25.232 85.8461 24.3213 85.8461 23.3778V22.2022C85.8461 20.0276 84.2174 18.2349 82.1181 18.0736Z" fill="white"/>
</svg>
