<svg width="58" height="334" viewBox="0 0 58 334" fill="none" xmlns="http://www.w3.org/2000/svg">
<g filter="url(#filter0_bf_325_815)">
<path d="M4 4H58V334H4V4Z" fill="#2B2A4A" fill-opacity="0.5"/>
</g>
<path d="M29.1504 175.951C28.9004 175.76 28.7754 175.534 28.7754 175.273C28.7754 175.012 28.9004 174.786 29.1504 174.595L36.4754 169L29.1254 163.385C28.8921 163.207 28.7754 162.984 28.7754 162.717C28.7754 162.45 28.9004 162.22 29.1504 162.029C29.4004 161.838 29.6964 161.743 30.0384 161.743C30.3797 161.743 30.6754 161.838 30.9254 162.029L39.3254 168.465C39.4254 168.542 39.4964 168.624 39.5384 168.713C39.5797 168.803 39.6004 168.898 39.6004 169C39.6004 169.102 39.5797 169.197 39.5384 169.286C39.4964 169.375 39.4254 169.458 39.3254 169.535L30.9004 175.97C30.6671 176.149 30.3797 176.238 30.0384 176.238C29.6964 176.238 29.4004 176.142 29.1504 175.951Z" fill="white"/>
<defs>
<filter id="filter0_bf_325_815" x="0" y="0" width="62" height="338" filterUnits="userSpaceOnUse" color-interpolation-filters="sRGB">
<feFlood flood-opacity="0" result="BackgroundImageFix"/>
<feGaussianBlur in="BackgroundImageFix" stdDeviation="2"/>
<feComposite in2="SourceAlpha" operator="in" result="effect1_backgroundBlur_325_815"/>
<feBlend mode="normal" in="SourceGraphic" in2="effect1_backgroundBlur_325_815" result="shape"/>
<feGaussianBlur stdDeviation="2" result="effect2_foregroundBlur_325_815"/>
</filter>
</defs>
</svg>
