<svg width="22" height="19" viewBox="0 0 22 19" fill="none" xmlns="http://www.w3.org/2000/svg">
<path d="M20 0.5H14C13.4178 0.5 12.8437 0.635544 12.3229 0.895898C11.8022 1.15625 11.3493 1.53426 11 2C10.6507 1.53426 10.1978 1.15625 9.67705 0.895898C9.15634 0.635544 8.58217 0.5 8 0.5H2C1.60218 0.5 1.22064 0.658035 0.93934 0.93934C0.658035 1.22064 0.5 1.60218 0.5 2V14C0.5 14.3978 0.658035 14.7794 0.93934 15.0607C1.22064 15.342 1.60218 15.5 2 15.5H8C8.59598 15.5025 9.16684 15.7403 9.58826 16.1617C10.0097 16.5832 10.2475 17.154 10.25 17.75C10.25 17.9489 10.329 18.1397 10.4697 18.2803C10.6103 18.421 10.8011 18.5 11 18.5C11.1989 18.5 11.3897 18.421 11.5303 18.2803C11.671 18.1397 11.75 17.9489 11.75 17.75C11.7525 17.154 11.9903 16.5832 12.4117 16.1617C12.8332 15.7403 13.404 15.5025 14 15.5H20C20.3978 15.5 20.7794 15.342 21.0607 15.0607C21.342 14.7794 21.5 14.3978 21.5 14V2C21.5 1.60218 21.342 1.22064 21.0607 0.93934C20.7794 0.658035 20.3978 0.5 20 0.5V0.5ZM8 14H2V2H8C8.59598 2.00247 9.16684 2.24031 9.58826 2.66174C10.0097 3.08316 10.2475 3.65402 10.25 4.25V14.75C9.60089 14.2632 8.81139 14 8 14ZM20 14H14C13.1886 14 12.3991 14.2632 11.75 14.75V4.25C11.7525 3.65402 11.9903 3.08316 12.4117 2.66174C12.8332 2.24031 13.404 2.00247 14 2H20V14Z" fill="white" fill-opacity="0.8"/>
</svg>
