<svg width="135" height="36" viewBox="0 0 135 36" fill="none" xmlns="http://www.w3.org/2000/svg">
<rect width="135" height="36" rx="8" fill="#3B3D51" fill-opacity="0.6"/>
<g clip-path="url(#clip0_325_804)">
<path d="M21.5713 15.8088C21.7088 15.3963 22.2913 15.3963 22.4288 15.8088L23.235 18.2301C23.4125 18.7623 23.7115 19.2459 24.1083 19.6426C24.5051 20.0392 24.9889 20.3379 25.5213 20.5151L27.9413 21.3213C28.3538 21.4588 28.3538 22.0413 27.9413 22.1788L25.52 22.9851C24.9878 23.1625 24.5042 23.4615 24.1075 23.8584C23.7109 24.2552 23.4122 24.739 23.235 25.2713L22.4288 27.6913C22.3991 27.7817 22.3417 27.8603 22.2647 27.9161C22.1877 27.9718 22.0951 28.0019 22 28.0019C21.9049 28.0019 21.8123 27.9718 21.7353 27.9161C21.6583 27.8603 21.6009 27.7817 21.5713 27.6913L20.765 25.2701C20.5877 24.738 20.2889 24.2544 19.8922 23.8578C19.4956 23.4612 19.0121 23.1624 18.48 22.9851L16.0588 22.1788C15.9684 22.1492 15.8898 22.0918 15.834 22.0148C15.7782 21.9378 15.7482 21.8451 15.7482 21.7501C15.7482 21.655 15.7782 21.5624 15.834 21.4854C15.8898 21.4084 15.9684 21.351 16.0588 21.3213L18.48 20.5151C19.0121 20.3377 19.4956 20.0389 19.8922 19.6423C20.2889 19.2457 20.5877 18.7622 20.765 18.2301L21.5713 15.8088ZM16.7425 9.43508C16.7604 9.38095 16.795 9.33384 16.8412 9.30046C16.8874 9.26707 16.943 9.2491 17 9.2491C17.057 9.2491 17.1126 9.26707 17.1588 9.30046C17.2051 9.33384 17.2396 9.38095 17.2575 9.43508L17.7413 10.8876C17.9575 11.5351 18.465 12.0426 19.1125 12.2588L20.565 12.7426C20.6191 12.7605 20.6662 12.795 20.6996 12.8413C20.733 12.8875 20.751 12.9431 20.751 13.0001C20.751 13.0571 20.733 13.1127 20.6996 13.1589C20.6662 13.2051 20.6191 13.2397 20.565 13.2576L19.1125 13.7413C18.7932 13.8477 18.503 14.027 18.265 14.265C18.027 14.5031 17.8477 14.7932 17.7413 15.1126L17.2575 16.5651C17.2396 16.6192 17.2051 16.6663 17.1588 16.6997C17.1126 16.7331 17.057 16.7511 17 16.7511C16.943 16.7511 16.8874 16.7331 16.8412 16.6997C16.795 16.6663 16.7604 16.6192 16.7425 16.5651L16.2588 15.1126C16.1524 14.7932 15.9731 14.5031 15.735 14.265C15.497 14.027 15.2069 13.8477 14.8875 13.7413L13.435 13.2576C13.3809 13.2397 13.3338 13.2051 13.3004 13.1589C13.267 13.1127 13.249 13.0571 13.249 13.0001C13.249 12.9431 13.267 12.8875 13.3004 12.8413C13.3338 12.795 13.3809 12.7605 13.435 12.7426L14.8875 12.2588C15.2069 12.1524 15.497 11.9731 15.735 11.7351C15.9731 11.4971 16.1524 11.2069 16.2588 10.8876L16.7425 9.43508ZM25.5788 8.12383C25.5911 8.08824 25.6142 8.05738 25.6449 8.03553C25.6756 8.01369 25.7123 8.00195 25.75 8.00195C25.7877 8.00195 25.8244 8.01369 25.8551 8.03553C25.8858 8.05738 25.9089 8.08824 25.9213 8.12383L26.2438 9.09133C26.3875 9.52383 26.7263 9.86258 27.1588 10.0063L28.1263 10.3288C28.1618 10.3412 28.1927 10.3643 28.2146 10.395C28.2364 10.4257 28.2481 10.4624 28.2481 10.5001C28.2481 10.5378 28.2364 10.5745 28.2146 10.6052C28.1927 10.6359 28.1618 10.659 28.1263 10.6713L27.1588 10.9938C26.9456 11.0647 26.7519 11.1844 26.5931 11.3432C26.4343 11.502 26.3147 11.6957 26.2438 11.9088L25.9213 12.8763C25.9089 12.9119 25.8858 12.9428 25.8551 12.9646C25.8244 12.9865 25.7877 12.9982 25.75 12.9982C25.7123 12.9982 25.6756 12.9865 25.6449 12.9646C25.6142 12.9428 25.5911 12.9119 25.5788 12.8763L25.2563 11.9088C25.1854 11.6957 25.0657 11.502 24.9069 11.3432C24.7481 11.1844 24.5544 11.0647 24.3413 10.9938L23.375 10.6713C23.3394 10.659 23.3086 10.6359 23.2867 10.6052C23.2649 10.5745 23.2531 10.5378 23.2531 10.5001C23.2531 10.4624 23.2649 10.4257 23.2867 10.395C23.3086 10.3643 23.3394 10.3412 23.375 10.3288L24.3425 10.0063C24.775 9.86258 25.1138 9.52383 25.2575 9.09133L25.5788 8.12508V8.12383Z" fill="white"/>
</g>
<path d="M41.408 24V12.72H42.448L49.68 22.32H49.312V12.72H50.544V24H49.52L42.288 14.4H42.64V24H41.408ZM56.2731 24.144C55.5585 24.144 54.9345 23.9787 54.4011 23.648C53.8678 23.3067 53.4518 22.8267 53.1531 22.208C52.8651 21.5893 52.7211 20.848 52.7211 19.984C52.7211 19.1093 52.8651 18.3627 53.1531 17.744C53.4518 17.1253 53.8678 16.6507 54.4011 16.32C54.9345 15.9893 55.5585 15.824 56.2731 15.824C56.9985 15.824 57.6225 16.0107 58.1451 16.384C58.6785 16.7467 59.0305 17.2427 59.2011 17.872H59.0091L59.1851 15.968H60.4331C60.4011 16.2773 60.3691 16.592 60.3371 16.912C60.3158 17.2213 60.3051 17.5253 60.3051 17.824V24H59.0091V22.112H59.1851C59.0145 22.7413 58.6625 23.2373 58.1291 23.6C57.5958 23.9627 56.9771 24.144 56.2731 24.144ZM56.5291 23.088C57.2971 23.088 57.9051 22.8267 58.3531 22.304C58.8011 21.7707 59.0251 20.9973 59.0251 19.984C59.0251 18.96 58.8011 18.1867 58.3531 17.664C57.9051 17.1307 57.2971 16.864 56.5291 16.864C55.7718 16.864 55.1638 17.1307 54.7051 17.664C54.2571 18.1867 54.0331 18.96 54.0331 19.984C54.0331 20.9973 54.2571 21.7707 54.7051 22.304C55.1638 22.8267 55.7718 23.088 56.5291 23.088ZM61.7549 27.52C61.6055 27.52 61.4189 27.4987 61.1949 27.456C60.9709 27.424 60.7842 27.3813 60.6349 27.328V26.24C60.7629 26.2827 60.9122 26.32 61.0829 26.352C61.2535 26.3947 61.4135 26.416 61.5629 26.416C62.0109 26.416 62.3415 26.272 62.5549 25.984C62.7789 25.7067 62.8909 25.248 62.8909 24.608V15.968H64.1869V24.736C64.1869 25.6533 63.9842 26.3467 63.5789 26.816C63.1842 27.2853 62.5762 27.52 61.7549 27.52ZM62.7469 14.144V12.688H64.3309V14.144H62.7469ZM66.6234 24V17.824C66.6234 17.5253 66.6074 17.2213 66.5754 16.912C66.554 16.592 66.5274 16.2773 66.4954 15.968H67.7434L67.9034 17.728H67.7114C67.946 17.1093 68.3194 16.64 68.8314 16.32C69.354 15.9893 69.9567 15.824 70.6394 15.824C71.5887 15.824 72.3034 16.08 72.7834 16.592C73.274 17.0933 73.5194 17.888 73.5194 18.976V24H72.2234V19.056C72.2234 18.2987 72.0687 17.7493 71.7594 17.408C71.4607 17.056 70.9914 16.88 70.3514 16.88C69.6047 16.88 69.0127 17.1093 68.5754 17.568C68.138 18.0267 67.9194 18.64 67.9194 19.408V24H66.6234ZM79.2944 24.144C78.5264 24.144 77.8544 23.9787 77.2784 23.648C76.713 23.3067 76.2757 22.8267 75.9664 22.208C75.657 21.5787 75.5024 20.8373 75.5024 19.984C75.5024 19.12 75.657 18.3787 75.9664 17.76C76.2757 17.1413 76.713 16.6667 77.2784 16.336C77.8544 15.9947 78.5264 15.824 79.2944 15.824C80.073 15.824 80.745 15.9947 81.3104 16.336C81.8864 16.6667 82.329 17.1413 82.6384 17.76C82.9584 18.3787 83.1184 19.12 83.1184 19.984C83.1184 20.8373 82.9584 21.5787 82.6384 22.208C82.329 22.8267 81.8864 23.3067 81.3104 23.648C80.745 23.9787 80.073 24.144 79.2944 24.144ZM79.2944 23.088C80.0624 23.088 80.6704 22.8267 81.1184 22.304C81.5664 21.7707 81.7904 20.9973 81.7904 19.984C81.7904 18.96 81.561 18.1867 81.1024 17.664C80.6544 17.1307 80.0517 16.864 79.2944 16.864C78.537 16.864 77.9344 17.1307 77.4864 17.664C77.0384 18.1867 76.8144 18.96 76.8144 19.984C76.8144 20.9973 77.0384 21.7707 77.4864 22.304C77.9344 22.8267 78.537 23.088 79.2944 23.088ZM87.1736 24L84.1976 15.968H85.5736L88.0536 23.04H87.6376L90.1976 15.968H91.3176L93.8296 23.04H93.4296L95.9256 15.968H97.2376L94.2456 24H92.9976L90.4056 16.816H91.0456L88.4376 24H87.1736ZM101.452 24.144C100.812 24.144 100.214 24.0587 99.6596 23.888C99.105 23.7067 98.6463 23.456 98.2836 23.136L98.7316 22.224C99.1263 22.5333 99.553 22.7627 100.012 22.912C100.481 23.0613 100.966 23.136 101.468 23.136C102.108 23.136 102.588 23.024 102.908 22.8C103.238 22.5653 103.404 22.2453 103.404 21.84C103.404 21.5307 103.297 21.2853 103.084 21.104C102.881 20.912 102.545 20.7627 102.076 20.656L100.588 20.352C99.905 20.2027 99.393 19.952 99.0516 19.6C98.7103 19.2373 98.5396 18.7787 98.5396 18.224C98.5396 17.7547 98.6623 17.344 98.9076 16.992C99.153 16.6293 99.5103 16.3467 99.9796 16.144C100.449 15.9307 100.998 15.824 101.628 15.824C102.214 15.824 102.753 15.9147 103.244 16.096C103.745 16.2667 104.161 16.5173 104.492 16.848L104.028 17.744C103.708 17.4347 103.34 17.2053 102.924 17.056C102.518 16.896 102.097 16.816 101.66 16.816C101.03 16.816 100.556 16.944 100.236 17.2C99.9263 17.4453 99.7716 17.7707 99.7716 18.176C99.7716 18.4853 99.8676 18.7413 100.06 18.944C100.262 19.136 100.572 19.28 100.988 19.376L102.476 19.68C103.201 19.84 103.74 20.0907 104.092 20.432C104.454 20.7627 104.636 21.2107 104.636 21.776C104.636 22.256 104.502 22.6773 104.236 23.04C103.969 23.392 103.596 23.664 103.116 23.856C102.646 24.048 102.092 24.144 101.452 24.144ZM106.175 24V23.136L111.583 16.64L111.599 16.976H106.175V15.968H112.799V16.832L107.327 23.36L107.311 22.992H112.975V24H106.175ZM118.348 24.144C117.089 24.144 116.097 23.7813 115.372 23.056C114.646 22.32 114.284 21.3013 114.284 20C114.284 19.1573 114.444 18.4267 114.764 17.808C115.084 17.1787 115.532 16.6933 116.108 16.352C116.684 16 117.345 15.824 118.092 15.824C118.828 15.824 119.446 15.9787 119.948 16.288C120.449 16.5973 120.833 17.04 121.1 17.616C121.366 18.1813 121.5 18.8533 121.5 19.632V20.112H115.276V19.296H120.652L120.38 19.504C120.38 18.6507 120.188 17.984 119.804 17.504C119.42 17.024 118.849 16.784 118.092 16.784C117.292 16.784 116.668 17.0667 116.22 17.632C115.772 18.1867 115.548 18.9387 115.548 19.888V20.032C115.548 21.0347 115.793 21.7973 116.284 22.32C116.785 22.832 117.484 23.088 118.38 23.088C118.86 23.088 119.308 23.0187 119.724 22.88C120.15 22.7307 120.556 22.4907 120.94 22.16L121.388 23.072C121.036 23.4133 120.588 23.68 120.044 23.872C119.51 24.0533 118.945 24.144 118.348 24.144Z" fill="white" fill-opacity="0.8"/>
<defs>
<clipPath id="clip0_325_804">
<rect width="20" height="20" fill="white" transform="translate(12 8)"/>
</clipPath>
</defs>
</svg>
