<svg width="155" height="24" viewBox="0 0 155 24" fill="none" xmlns="http://www.w3.org/2000/svg">
<path d="M21 4.5H15C14.4178 4.5 13.8437 4.63554 13.3229 4.8959C12.8022 5.15625 12.3493 5.53426 12 6C11.6507 5.53426 11.1978 5.15625 10.6771 4.8959C10.1563 4.63554 9.58217 4.5 9 4.5H3C2.60218 4.5 2.22064 4.65804 1.93934 4.93934C1.65804 5.22064 1.5 5.60218 1.5 6V18C1.5 18.3978 1.65804 18.7794 1.93934 19.0607C2.22064 19.342 2.60218 19.5 3 19.5H9C9.59598 19.5025 10.1668 19.7403 10.5883 20.1617C11.0097 20.5832 11.2475 21.154 11.25 21.75C11.25 21.9489 11.329 22.1397 11.4697 22.2803C11.6103 22.421 11.8011 22.5 12 22.5C12.1989 22.5 12.3897 22.421 12.5303 22.2803C12.671 22.1397 12.75 21.9489 12.75 21.75C12.7525 21.154 12.9903 20.5832 13.4117 20.1617C13.8332 19.7403 14.404 19.5025 15 19.5H21C21.3978 19.5 21.7794 19.342 22.0607 19.0607C22.342 18.7794 22.5 18.3978 22.5 18V6C22.5 5.60218 22.342 5.22064 22.0607 4.93934C21.7794 4.65804 21.3978 4.5 21 4.5ZM9 18H3V6H9C9.59598 6.00247 10.1668 6.24031 10.5883 6.66174C11.0097 7.08316 11.2475 7.65402 11.25 8.25V18.75C10.6009 18.2632 9.81139 18 9 18ZM21 18H15C14.1886 18 13.3991 18.2632 12.75 18.75V8.25C12.7525 7.65402 12.9903 7.08316 13.4117 6.66174C13.8332 6.24031 14.404 6.00247 15 6H21V18Z" fill="white" fill-opacity="0.8"/>
<path d="M37.04 18.5L32.612 5.81H34.178L38.048 17.24H37.418L41.486 5.81H42.674L46.526 17.24H45.95L49.928 5.81H51.404L46.94 18.5H45.608L41.864 7.502H42.242L38.336 18.5H37.04ZM52.5913 22.586L52.2493 21.38C52.8133 21.248 53.2813 21.092 53.6533 20.912C54.0373 20.744 54.3553 20.516 54.6073 20.228C54.8593 19.94 55.0753 19.58 55.2553 19.148L55.7233 18.086L55.6873 18.698L51.7453 9.464H53.3293L56.5873 17.402H56.1193L59.3413 9.464H60.8713L56.6953 19.256C56.4553 19.832 56.1913 20.312 55.9033 20.696C55.6153 21.092 55.3033 21.41 54.9673 21.65C54.6433 21.902 54.2833 22.1 53.8873 22.244C53.4913 22.388 53.0593 22.502 52.5913 22.586ZM65.8108 18.662C65.0188 18.662 64.3228 18.476 63.7228 18.104C63.1228 17.72 62.6548 17.18 62.3188 16.484C61.9948 15.788 61.8328 14.954 61.8328 13.982C61.8328 12.998 61.9948 12.158 62.3188 11.462C62.6548 10.766 63.1228 10.232 63.7228 9.86C64.3228 9.488 65.0188 9.302 65.8108 9.302C66.6268 9.302 67.3288 9.506 67.9168 9.914C68.5168 10.322 68.9188 10.874 69.1228 11.57H68.9068V5.252H70.3648V18.5H68.9248V16.34H69.1228C68.9308 17.06 68.5348 17.63 67.9348 18.05C67.3348 18.458 66.6268 18.662 65.8108 18.662ZM66.1168 17.474C66.9688 17.474 67.6528 17.18 68.1688 16.592C68.6848 15.992 68.9428 15.122 68.9428 13.982C68.9428 12.83 68.6848 11.96 68.1688 11.372C67.6528 10.772 66.9688 10.472 66.1168 10.472C65.2648 10.472 64.5808 10.772 64.0648 11.372C63.5608 11.96 63.3088 12.83 63.3088 13.982C63.3088 15.122 63.5608 15.992 64.0648 16.592C64.5808 17.18 65.2648 17.474 66.1168 17.474ZM76.6217 18.662C75.8177 18.662 75.1157 18.476 74.5157 18.104C73.9157 17.72 73.4477 17.18 73.1117 16.484C72.7877 15.788 72.6257 14.954 72.6257 13.982C72.6257 12.998 72.7877 12.158 73.1117 11.462C73.4477 10.766 73.9157 10.232 74.5157 9.86C75.1157 9.488 75.8177 9.302 76.6217 9.302C77.4377 9.302 78.1397 9.512 78.7277 9.932C79.3277 10.34 79.7237 10.898 79.9157 11.606H79.6997L79.8977 9.464H81.3017C81.2657 9.812 81.2297 10.166 81.1937 10.526C81.1697 10.874 81.1577 11.216 81.1577 11.552V18.5H79.6997V16.376H79.8977C79.7057 17.084 79.3097 17.642 78.7097 18.05C78.1097 18.458 77.4137 18.662 76.6217 18.662ZM76.9097 17.474C77.7737 17.474 78.4577 17.18 78.9617 16.592C79.4657 15.992 79.7177 15.122 79.7177 13.982C79.7177 12.83 79.4657 11.96 78.9617 11.372C78.4577 10.772 77.7737 10.472 76.9097 10.472C76.0577 10.472 75.3737 10.772 74.8577 11.372C74.3537 11.96 74.1017 12.83 74.1017 13.982C74.1017 15.122 74.3537 15.992 74.8577 16.592C75.3737 17.18 76.0577 17.474 76.9097 17.474ZM86.3008 18.5L82.9528 9.464H84.5008L87.2908 17.42H86.8228L89.7028 9.464H90.9628L93.7888 17.42H93.3388L96.1468 9.464H97.6228L94.2568 18.5H92.8528L89.9368 10.418H90.6568L87.7228 18.5H86.3008ZM99.5333 18.5V11.552C99.5333 11.216 99.5153 10.874 99.4793 10.526C99.4553 10.166 99.4253 9.812 99.3893 9.464H100.793L100.973 11.444H100.757C101.021 10.748 101.441 10.22 102.017 9.86C102.605 9.488 103.283 9.302 104.051 9.302C105.119 9.302 105.923 9.59 106.463 10.166C107.015 10.73 107.291 11.624 107.291 12.848V18.5H105.833V12.938C105.833 12.086 105.659 11.468 105.311 11.084C104.975 10.688 104.447 10.49 103.727 10.49C102.887 10.49 102.221 10.748 101.729 11.264C101.237 11.78 100.991 12.47 100.991 13.334V18.5H99.5333ZM110.08 18.5V9.464H111.538V18.5H110.08ZM109.9 7.412V5.774H111.7V7.412H109.9ZM118.167 18.662C117.279 18.662 116.505 18.47 115.845 18.086C115.197 17.702 114.693 17.156 114.333 16.448C113.985 15.74 113.811 14.9 113.811 13.928C113.811 12.944 113.991 12.11 114.351 11.426C114.711 10.73 115.215 10.202 115.863 9.842C116.523 9.482 117.291 9.302 118.167 9.302C118.743 9.302 119.301 9.404 119.841 9.608C120.393 9.812 120.849 10.1 121.209 10.472L120.687 11.516C120.327 11.168 119.931 10.91 119.499 10.742C119.079 10.574 118.665 10.49 118.257 10.49C117.321 10.49 116.595 10.784 116.079 11.372C115.563 11.96 115.305 12.818 115.305 13.946C115.305 15.062 115.563 15.926 116.079 16.538C116.595 17.15 117.321 17.456 118.257 17.456C118.653 17.456 119.061 17.378 119.481 17.222C119.913 17.066 120.315 16.808 120.687 16.448L121.209 17.474C120.837 17.858 120.375 18.152 119.823 18.356C119.271 18.56 118.719 18.662 118.167 18.662ZM126.485 18.662C125.597 18.662 124.919 18.41 124.451 17.906C123.983 17.39 123.749 16.616 123.749 15.584V10.598H121.985V9.464H123.749V6.998L125.207 6.584V9.464H127.799V10.598H125.207V15.422C125.207 16.142 125.327 16.658 125.567 16.97C125.819 17.27 126.191 17.42 126.683 17.42C126.911 17.42 127.115 17.402 127.295 17.366C127.475 17.318 127.637 17.264 127.781 17.204V18.428C127.613 18.5 127.409 18.554 127.169 18.59C126.941 18.638 126.713 18.662 126.485 18.662ZM132.092 18.5L128.744 9.464H130.292L133.082 17.42H132.614L135.494 9.464H136.754L139.58 17.42H139.13L141.938 9.464H143.414L140.048 18.5H138.644L135.728 10.418H136.448L133.514 18.5H132.092ZM148.909 18.662C148.045 18.662 147.289 18.476 146.641 18.104C146.005 17.72 145.513 17.18 145.165 16.484C144.817 15.776 144.643 14.942 144.643 13.982C144.643 13.01 144.817 12.176 145.165 11.48C145.513 10.784 146.005 10.25 146.641 9.878C147.289 9.494 148.045 9.302 148.909 9.302C149.785 9.302 150.541 9.494 151.177 9.878C151.825 10.25 152.323 10.784 152.671 11.48C153.031 12.176 153.211 13.01 153.211 13.982C153.211 14.942 153.031 15.776 152.671 16.484C152.323 17.18 151.825 17.72 151.177 18.104C150.541 18.476 149.785 18.662 148.909 18.662ZM148.909 17.474C149.773 17.474 150.457 17.18 150.961 16.592C151.465 15.992 151.717 15.122 151.717 13.982C151.717 12.83 151.459 11.96 150.943 11.372C150.439 10.772 149.761 10.472 148.909 10.472C148.057 10.472 147.379 10.772 146.875 11.372C146.371 11.96 146.119 12.83 146.119 13.982C146.119 15.122 146.371 15.992 146.875 16.592C147.379 17.18 148.057 17.474 148.909 17.474Z" fill="white" fill-opacity="0.8"/>
</svg>
